<svg xmlns="http://www.w3.org/2000/svg" width="738.667" height="542.667" version="1.0" viewBox="0 0 554 407"><path d="M253.5 30.7c-8.2 2.2-15.6 9.5-18 17.8-2.2 7.4-.7 16.5 3.6 22.5 1.6 2.2 2.9 4.2 2.9 4.4 0 .3-1.2 1.8-2.6 3.3-6.9 7.3-13.9 20.8-20 38.3-3.5 10-4.4 27.4-1.9 36.9 2.5 9.7 9.1 21.9 14.7 27.2 2.6 2.5 4.8 5.3 4.8 6.2 0 .9-1.8 2.9-4.1 4.4-2.2 1.5-7.6 7.3-12 12.9-9.1 11.8-13.8 16-19.4 17.5-4.9 1.4-16.1.6-23.2-1.6-4.9-1.5-5.2-1.7-5.8-5.7-1.5-8.8-7.4-17.1-14.9-21.1-6.2-3.3-18.4-3.1-24.6.3-9 5.1-14.9 16.9-13.5 27.3 2 15.3 12 24.7 27.1 25.5 7.7.4 12-1.1 18.3-6.3 3.6-3.1 5.3-3 24.6 1 25.6 5.4 39.8 5.3 55-.3 8.7-3.1 13.1-6.1 23.3-15.7 4.4-4.1 8.2-7.5 8.5-7.5.3 0 1.6 1.7 2.8 3.7 2.9 4.7 9.4 12.4 17.9 21.1l6.5 6.7v8.5c0 9.3-2.5 18.1-7.7 27.8-5.5 10.3-5.1 9.9-13.1 10.4-17.1.9-26.7 10.8-26.7 27.5 0 7.6 1.5 11.7 6.5 17.1 5.8 6.5 11.4 8.7 21.5 8.6 7.2-.1 9.2-.5 13-2.7 14.8-8.5 19.3-26.5 10-39.7-1.8-2.4-1.7-2.5 1.4-6.9 1.7-2.5 4.2-6.6 5.6-9.2 1.4-2.6 4-7.4 5.7-10.7 13.7-25.4 15.5-53.5 4.7-72.7-1.5-2.8-5-8-7.7-11.8l-4.9-6.7 3.7-4.3c2.1-2.3 4.6-4.9 5.6-5.7.9-.8 5.4-5.5 9.9-10.5 4.4-4.9 9.3-9.7 10.8-10.7 3-2 8.8-2.3 14.7-.7 14.5 3.8 14.2 3.7 14.9 7.4 1.2 6.5 3.7 10.7 9.9 17 6.9 7 10.4 8.5 20.3 8.5 14.9 0 24.7-10.8 24.6-27.3 0-10.1-4.2-18.4-11.5-23.1-12-7.7-22.4-7.4-36.3.9-3.1 1.9-3.2 1.9-10.5-.4-4.1-1.3-12.8-3.7-19.4-5.3-28.8-7.3-51.4-2.5-66.9 14.3-3.5 3.8-6.8 6.8-7.2 6.8-2.2-.3-25.4-25.9-27.3-30.1-4.9-10.9-3.5-19.7 5.3-34.5 2.5-4.1 4.6-7.9 4.6-8.3 0-.4 3.5-1 7.8-1.4 8.6-.8 16.3-3.8 19.9-7.7 7-7.8 9-20.2 4.5-28.7-2.7-5.2-8.6-11.3-13.1-13.6-4.7-2.5-15.3-2.9-22.6-.9zM281 187v8.1l-7.2-.3-7.3-.3-.3-7.8-.3-7.7H281v8z"/></svg>