<svg xmlns="http://www.w3.org/2000/svg" width="800.667" height="192.64"><path stroke="#000" d="M50.72 148.48q-12 0-21.52-2.32t-16.56-5.36q-1.76-.8-3.12-2.64t-1.36-3.92q0-2.72 1.76-4.72 1.76-2 4.8-2 1.6 0 3.04.64 5.44 2.4 13.36 4.48 7.92 2.08 18.16 2.08 8 0 14.32-1.68t10-5.76q3.68-4.08 3.68-10.96 0-5.12-3.68-8.24t-9.76-5.2q-6.08-2.08-13.36-3.84Q43.2 97.28 36 95.12t-13.28-5.68q-6.08-3.52-9.76-9.04-3.68-5.52-3.68-14 0-8.96 4.72-16.4 4.72-7.44 14-11.92 9.28-4.48 22.72-4.48 9.44 0 17.44 1.44 8 1.44 14.4 3.84 1.76.64 3.12 2.08t1.36 4.32q0 2.4-1.68 4.56Q83.68 52 80.64 52q-.64 0-1.28-.24t-1.28-.4q-5.44-1.92-11.92-3.12-6.48-1.2-13.84-1.2-12.16 0-20.32 4.64t-8.16 13.6q0 5.92 3.68 9.44 3.68 3.52 9.76 5.6 6.08 2.08 13.28 3.76 7.2 1.68 14.4 3.76t13.28 5.52q6.08 3.44 9.76 9.12 3.68 5.68 3.68 14.8 0 8.96-5.04 16.08-5.04 7.12-14.24 11.12-9.2 4-21.68 4Zm75.68 36q-3.04 0-5.12-2.16t-2.08-5.2V71.68q0-3.04 2.08-5.12t5.12-2.08q3.2 0 5.28 2.08t2.08 5.12v4.16q5.6-5.76 12.32-8.96 6.72-3.2 15.04-3.2 9.76 0 18.56 4.96 8.8 4.96 14.48 14.4 5.68 9.44 5.68 23.04t-5.68 23.04q-5.68 9.44-14.48 14.4-8.8 4.96-18.56 4.96-8.32 0-15.04-3.2-6.72-3.2-12.32-8.96v40.8q0 3.04-2.08 5.2t-5.28 2.16Zm32.64-49.6q11.36 0 18.8-7.36 7.44-7.36 7.44-21.44 0-14.24-7.44-21.52-7.44-7.28-18.8-7.28-7.84 0-14.24 3.44t-11.04 8.56v33.6q4.64 5.12 11.04 8.56 6.4 3.44 14.24 3.44ZM236 48.64h-.96q-3.36 0-5.76-2.4t-2.4-5.76v-.64q0-3.36 2.4-5.76t5.76-2.4h.96q3.36 0 5.76 2.4t2.4 5.76v.64q0 3.36-2.4 5.76t-5.76 2.4Zm-.64 99.04q-3.04 0-5.12-2.08t-2.08-5.12V71.84q0-3.2 2.08-5.28t5.12-2.08q3.2 0 5.28 2.08t2.08 5.28v68.64q0 3.04-2.08 5.12t-5.28 2.08Zm47.84 0q-3.04 0-5.12-2.08t-2.08-5.12V71.84q0-3.2 2.08-5.28t5.12-2.08q3.04 0 5.2 2.08t2.16 5.28v6.56q5.12-5.6 12.08-10.16 6.96-4.56 17.68-4.56 9.12 0 15.52 4.24t9.76 11.36q3.36 7.12 3.36 15.76v45.44q0 3.04-2.16 5.12t-5.2 2.08q-3.04 0-5.12-2.08t-2.08-5.12V96.64q0-9.12-4.08-14.32-4.08-5.2-13.52-5.2-8.64 0-15.04 4.64-6.4 4.64-11.2 10.72v48q0 3.04-2.16 5.12t-5.2 2.08Zm134.72.8q-19.52 0-30.48-11.12t-10.96-31.28q0-10.88 4-20.56 4-9.68 12.48-15.76t21.76-6.08q12.32 0 20.8 5.68t12.88 14.8q4.4 9.12 4.4 19.84 0 3.04-2 5.12t-5.36 2.08H391.2q1.28 10.72 8.16 17.2 6.88 6.48 19.84 6.48 7.2 0 12.16-1.36t9.44-3.6q1.28-.64 2.88-.64 2.56 0 4.48 1.76 1.92 1.76 1.92 4.48 0 1.92-1.2 3.44t-2.96 2.48q-5.28 3.04-11.44 5.04-6.16 2-16.56 2ZM391.2 99.36h47.2q-.48-8.32-4.24-13.44-3.76-5.12-9.04-7.52-5.28-2.4-10.4-2.4t-10.4 2.4q-5.28 2.4-8.96 7.52-3.68 5.12-4.16 13.44Zm140.96 49.12q-15.84 0-28.56-6.96-12.72-6.96-20.08-19.84-7.36-12.88-7.36-30.64 0-17.92 7.36-30.72 7.36-12.8 20.08-19.76 12.72-6.96 28.56-6.96 11.84 0 20.48 2.88t16 7.04q1.6.8 2.48 2.16.88 1.36 1.04 3.6.16 2.56-1.6 4.48-1.76 1.92-4.8 1.92-1.6 0-2.88-.64-6.4-3.36-13.12-5.44-6.72-2.08-16.16-2.08-14.08 0-23.68 5.76t-14.4 15.6q-4.8 9.84-4.8 22.16t4.8 22.16q4.8 9.84 14.4 15.6 9.6 5.76 23.68 5.76 9.44 0 16.16-2.08 6.72-2.08 13.12-5.44 1.28-.64 2.88-.64 3.04 0 4.8 1.92 1.76 1.92 1.6 4.48-.16 2.24-1.04 3.6-.88 1.36-2.48 2.16-7.36 4.16-16 7.04t-20.48 2.88Zm105.12 0q-12 0-21.52-2.32t-16.56-5.36q-1.76-.8-3.12-2.64t-1.36-3.92q0-2.72 1.76-4.72 1.76-2 4.8-2 1.6 0 3.04.64 5.44 2.4 13.36 4.48 7.92 2.08 18.16 2.08 8 0 14.32-1.68t10-5.76q3.68-4.08 3.68-10.96 0-5.12-3.68-8.24t-9.76-5.2q-6.08-2.08-13.36-3.84-7.28-1.76-14.48-3.92t-13.28-5.68q-6.08-3.52-9.76-9.04-3.68-5.52-3.68-14 0-8.96 4.72-16.4 4.72-7.44 14-11.92 9.28-4.48 22.72-4.48 9.44 0 17.44 1.44 8 1.44 14.4 3.84 1.76.64 3.12 2.08t1.36 4.32q0 2.4-1.68 4.56Q670.24 52 667.2 52q-.64 0-1.28-.24t-1.28-.4q-5.44-1.92-11.92-3.12-6.48-1.2-13.84-1.2-12.16 0-20.32 4.64t-8.16 13.6q0 5.92 3.68 9.44 3.68 3.52 9.76 5.6 6.08 2.08 13.28 3.76 7.2 1.68 14.4 3.76t13.28 5.52q6.08 3.44 9.76 9.12 3.68 5.68 3.68 14.8 0 8.96-5.04 16.08-5.04 7.12-14.24 11.12-9.2 4-21.68 4Zm106.56 0q-12 0-21.52-2.32t-16.56-5.36q-1.76-.8-3.12-2.64t-1.36-3.92q0-2.72 1.76-4.72 1.76-2 4.8-2 1.6 0 3.04.64 5.44 2.4 13.36 4.48 7.92 2.08 18.16 2.08 8 0 14.32-1.68t10-5.76q3.68-4.08 3.68-10.96 0-5.12-3.68-8.24t-9.76-5.2q-6.08-2.08-13.36-3.84-7.28-1.76-14.48-3.92t-13.28-5.68q-6.08-3.52-9.76-9.04-3.68-5.52-3.68-14 0-8.96 4.72-16.4 4.72-7.44 14-11.92 9.28-4.48 22.72-4.48 9.44 0 17.44 1.44 8 1.44 14.4 3.84 1.76.64 3.12 2.08t1.36 4.32q0 2.4-1.68 4.56Q776.8 52 773.76 52q-.64 0-1.28-.24t-1.28-.4q-5.44-1.92-11.92-3.12-6.48-1.2-13.84-1.2-12.16 0-20.32 4.64t-8.16 13.6q0 5.92 3.68 9.44 3.68 3.52 9.76 5.6 6.08 2.08 13.28 3.76 7.2 1.68 14.4 3.76t13.28 5.52q6.08 3.44 9.76 9.12 3.68 5.68 3.68 14.8 0 8.96-5.04 16.08-5.04 7.12-14.24 11.12-9.2 4-21.68 4Z"/></svg>